<?xml version="1.0" encoding="iso-8859-1"?>
<!-- Sources: http://www.flaticon.com/free-icon/wall-clock_68379 ; http://www.flaticon.com/packs/in-the-airport -->
<!-- Generator: Adobe Illustrator 18.0.0, SVG Export Plug-In . SVG Version: 6.00 Build 0)  -->
<!DOCTYPE svg PUBLIC "-//W3C//DTD SVG 1.1//EN" "http://www.w3.org/Graphics/SVG/1.1/DTD/svg11.dtd">
<svg version="1.1" id="Capa_1" xmlns="http://www.w3.org/2000/svg" xmlns:xlink="http://www.w3.org/1999/xlink" x="0px" y="0px"
	 viewBox="0 0 390 390" style="enable-background:new 0 0 390 390;" xml:space="preserve">
<path d="M195,0C87.305,0,0,87.304,0,195s87.305,195,195,195s195-87.304,195-195S302.695,0,195,0z M119.524,45.678
	c-3.493,4.838-6.838,10.033-10.007,15.6c-4.841,8.503-9.16,17.656-12.945,27.33c-8.064-2.22-16.089-4.713-24.064-7.483
	C85.91,66.718,101.813,54.667,119.524,45.678z M52.298,107.694c11.438,4.293,22.976,8.056,34.591,11.293
	c-4.78,18.934-7.744,39.182-8.745,60.087h-49.72C30.888,153.108,39.305,128.852,52.298,107.694z M52.298,282.306
	c-12.994-21.159-21.411-45.414-23.874-71.38h49.72c1.002,20.905,3.965,41.153,8.745,60.087
	C75.274,274.25,63.736,278.013,52.298,282.306z M72.508,308.876c7.975-2.77,16-5.265,24.063-7.483
	c3.786,9.674,8.105,18.827,12.946,27.33c3.168,5.566,6.514,10.762,10.007,15.6C101.813,335.333,85.91,323.283,72.508,308.876z
	 M179.074,354.07c-20.393-7.648-38.458-29.593-51.05-59.894c16.931-3.125,33.977-5.059,51.05-5.8V354.07z M179.074,256.454
	c-20.448,0.818-40.862,3.221-61.117,7.191c-4.16-16.355-6.908-34.13-7.915-52.72h69.032V256.454z M179.074,179.074h-69.032
	c1.007-18.59,3.755-36.365,7.915-52.72c20.254,3.971,40.669,6.373,61.117,7.191V179.074z M179.074,101.623
	c-17.073-0.741-34.118-2.675-51.05-5.8c12.592-30.301,30.657-52.245,51.05-59.894V101.623z M337.703,107.697
	c12.993,21.157,21.409,45.412,23.872,71.377h-49.72c-1.001-20.903-3.965-41.151-8.744-60.083
	C314.727,115.754,326.266,111.992,337.703,107.697z M317.495,81.128c-7.975,2.77-16,5.265-24.065,7.484
	c-3.786-9.676-8.105-18.831-12.947-27.335c-3.169-5.566-6.514-10.762-10.006-15.6C288.189,54.668,304.092,66.72,317.495,81.128z
	 M210.926,35.93c20.393,7.648,38.459,29.595,51.051,59.898c-16.931,3.124-33.977,5.057-51.051,5.797V35.93z M210.926,133.547
	c20.45-0.817,40.865-3.219,61.118-7.188c4.16,16.354,6.907,34.128,7.914,52.716h-69.032V133.547z M210.926,210.926h69.032
	c-1.007,18.588-3.754,36.362-7.914,52.716c-20.253-3.97-40.668-6.371-61.118-7.189V210.926z M210.926,354.07v-65.694
	c17.075,0.741,34.121,2.673,51.051,5.798C249.385,324.475,231.319,346.422,210.926,354.07z M270.477,344.322
	c3.493-4.838,6.838-10.033,10.006-15.6c4.842-8.504,9.161-17.659,12.947-27.334c8.064,2.22,16.089,4.714,24.065,7.484
	C304.092,323.28,288.189,335.332,270.477,344.322z M337.703,282.304c-11.437-4.296-22.976-8.058-34.591-11.296
	c4.779-18.932,7.742-39.179,8.744-60.082h49.72C359.112,236.891,350.696,261.146,337.703,282.304z"/>
<path d="M31.2,31.2L358.8,358.8M358.8,31.2L31.2,358.8" stroke="#FF0000" stroke-width="15%" stroke-linecap="round"/>
<g>
</g>
<g>
</g>
<g>
</g>
<g>
</g>
<g>
</g>
<g>
</g>
<g>
</g>
<g>
</g>
<g>
</g>
<g>
</g>
<g>
</g>
<g>
</g>
<g>
</g>
<g>
</g>
<g>
</g>
</svg>
