<?xml version="1.0" encoding="UTF-8"?>
<!-- Sources: http://www.flaticon.com/free-icon/desktop-application_73465 ; http://www.flaticon.com/packs/design-app-ui -->
<!DOCTYPE svg PUBLIC "-//W3C//DTD SVG 1.1//EN" "http://www.w3.org/Graphics/SVG/1.1/DTD/svg11.dtd">
<svg version="1.1" xmlns="http://www.w3.org/2000/svg" viewBox="0 0 493.718 493.718">
	<path d="M421.94,0H71.772C39.84,0,13.962,25.885,13.962,57.819v266.978c0,31.934,25.878,57.816,57.811,57.816h122.068v39.007h-53.662c-12.143,0-21.978,9.837-21.978,21.985v28.132c0,12.146,9.836,21.98,21.978,21.98h213.338c12.15,0,21.986-9.834,21.986-21.98v-28.132c0-12.148-9.836-21.985-21.986-21.985h-53.675v-39.007H421.94c31.934,0,57.815-25.882,57.815-57.816V57.819C479.756,25.885,453.874,0,421.94,0zM393.538,354.435c-9.946,0-18.035-8.086-18.035-18.053c0-9.946,8.089-18.004,18.035-18.004c9.967,0,18.022,8.058,18.022,18.004C411.56,346.349,403.505,354.435,393.538,354.435zM429.597,275.069c0,12.145-9.836,21.982-21.986,21.982H86.104c-12.145,0-21.98-9.838-21.98-21.982V68.294c0-12.146,9.836-21.982,21.98-21.982H407.61c12.15,0,21.986,9.836,21.986,21.982V275.069zM400.294,62.313H289.19c-4.542,0-8.214,3.671-8.214,8.212v87.293c0,4.542,3.672,8.217,8.214,8.217h111.104c4.542,0,8.219-3.675,8.219-8.217V70.524C408.513,65.983,404.836,62.313,400.294,62.313zM392.075,149.605h-94.673V78.741h94.673V149.605zM400.294,177.329H289.19c-4.542,0-8.214,3.677-8.214,8.219v87.292c0,4.54,3.672,8.215,8.214,8.215h111.104c4.542,0,8.219-3.675,8.219-8.215v-87.292C408.513,181.006,404.836,177.329,400.294,177.329zM392.075,264.623h-94.673v-70.86h94.673V264.623zM109.583,110.065h55.452c6.808,0,12.323-5.52,12.323-12.326c0-6.802-5.516-12.322-12.323-12.322h-55.452c-6.807,0-12.328,5.521-12.328,12.322C97.255,104.546,102.776,110.065,109.583,110.065zM109.583,159.357h71.89c6.797,0,12.319-5.519,12.319-12.32c0-6.806-5.522-12.326-12.319-12.326h-71.89c-6.807,0-12.328,5.52-12.328,12.326C97.255,153.839,102.776,159.357,109.583,159.357zM230.765,184.008H109.583c-6.807,0-12.328,5.519-12.328,12.324c0,6.801,5.521,12.321,12.328,12.321h121.182c6.8,0,12.32-5.521,12.32-12.321C243.085,189.526,237.564,184.008,230.765,184.008zM230.765,233.3H109.583c-6.807,0-12.328,5.521-12.328,12.326c0,6.802,5.521,12.32,12.328,12.32h121.182c6.8,0,12.32-5.519,12.32-12.32C243.085,238.821,237.564,233.3,230.765,233.3z" fill="#000000"/>
</svg>
