<?xml version="1.0" encoding="UTF-8"?>
<!-- Sources: http://www.flaticon.com/free-icon/internet-grid_73511 ; http://www.flaticon.com/packs/web-application -->
<!DOCTYPE svg PUBLIC "-//W3C//DTD SVG 1.1//EN" "http://www.w3.org/Graphics/SVG/1.1/DTD/svg11.dtd">
<svg version="1.1" xmlns="http://www.w3.org/2000/svg" viewBox="0 0 400 400">
	<path d="M341.424,58.579C303.649,20.804,253.419,0,200,0S96.351,20.804,58.576,58.579C20.801,96.354,0,146.577,0,200s20.801,103.646,58.576,141.421C96.351,379.196,146.581,400,200,400s103.649-20.804,141.424-58.579C379.199,303.646,400,253.423,400,200S379.199,96.354,341.424,58.579zM200,366.38c-91.74,0-166.384-74.637-166.384-166.38S108.26,33.62,200,33.62S366.384,108.257,366.384,200S291.74,366.38,200,366.38zM138.802,306.204c-6.447-3.72-14.698-1.517-18.431,4.931c-3.719,6.455-1.506,14.707,4.941,18.428c2.122,1.229,4.446,1.814,6.736,1.814c4.658,0,9.188-2.419,11.69-6.744C147.461,318.176,145.255,309.926,138.802,306.204zM131.806,95.758c2.298,0,4.632-0.586,6.764-1.822c6.437-3.74,8.633-12,4.891-18.438c-3.749-6.446-11.998-8.633-18.438-4.894c-6.446,3.74-8.632,11.991-4.891,18.437C122.635,93.35,127.154,95.758,131.806,95.758zM75.34,143.814c2.121,1.217,4.438,1.804,6.726,1.804c4.661,0,9.201-2.418,11.694-6.753c3.721-6.446,1.506-14.697-4.941-18.418c-6.455-3.73-14.705-1.516-18.427,4.938C66.67,131.842,68.886,140.084,75.34,143.814zM199.769,77.451c0.01,0,0.01,0,0.017,0c7.452-0.019,13.479-6.065,13.473-13.516c-0.021-7.452-6.064-13.479-13.517-13.461c-7.453,0.009-13.479,6.056-13.462,13.506C186.289,71.423,192.325,77.451,199.769,77.451zM75.461,256.475c-6.447,3.73-8.643,11.98-4.901,18.429c2.503,4.314,7.033,6.726,11.685,6.726c2.297,0,4.621-0.586,6.753-1.823c6.446-3.729,8.64-11.991,4.9-18.429C90.159,254.932,81.907,252.734,75.461,256.475zM77.451,200.141c-0.01-7.453-6.056-13.479-13.506-13.471c-7.451,0.009-13.479,6.055-13.47,13.497c0.01,7.452,6.046,13.479,13.489,13.479h0.007C71.425,213.637,77.461,207.59,77.451,200.141zM200.064,322.549c-7.44,0.01-13.479,6.047-13.479,13.497c0.01,7.452,6.049,13.489,13.499,13.479c7.45,0,13.489-6.047,13.479-13.498C213.564,328.585,207.52,322.549,200.064,322.549zM324.595,256.335c-6.444-3.729-14.693-1.526-18.427,4.921c-3.729,6.446-1.525,14.697,4.921,18.428c2.132,1.229,4.456,1.813,6.743,1.813c4.661,0,9.191-2.408,11.684-6.735C333.248,268.316,331.042,260.064,324.595,256.335zM336.01,186.195c-7.45,0.019-13.479,6.075-13.459,13.525c0,0.075,0,0.15,0,0.214c0,0.029,0,0.047,0,0.066c0,7.451,6.035,13.488,13.486,13.488c7.453,0,13.489-6.037,13.489-13.488c0-0.047,0-0.103,0-0.158c0-0.056,0-0.122,0-0.186C349.509,192.205,343.46,186.186,336.01,186.195zM261.071,93.721c2.119,1.228,4.437,1.804,6.724,1.804c4.661,0,9.201-2.418,11.694-6.753c3.722-6.457,1.507-14.707-4.948-18.428c-6.457-3.712-14.709-1.498-18.42,4.959C252.402,81.758,254.615,90.01,261.071,93.721zM261.312,306.141c-6.446,3.729-8.649,11.979-4.91,18.427c2.502,4.315,7.03,6.734,11.684,6.734c2.298,0,4.614-0.586,6.743-1.82c6.447-3.73,8.643-11.982,4.914-18.431C276.01,304.604,267.758,302.4,261.312,306.141zM317.703,145.219c2.308,0,4.632-0.596,6.771-1.833c6.439-3.749,8.626-12,4.877-18.437c-3.74-6.447-12.001-8.624-18.438-4.884c-6.439,3.739-8.625,11.999-4.884,18.437C308.532,142.809,313.052,145.219,317.703,145.219zM284.759,209.456l-70.832-4.831l-7.07-103.744c-0.244-3.569-3.212-6.34-6.791-6.34c-3.578,0-6.542,2.771-6.788,6.34l-6.945,101.862l-11.337-0.773c-1.512-0.104-2.999,0.425-4.106,1.46c-1.105,1.034-1.734,2.482-1.734,3.998v14.972c0,1.517,0.629,2.963,1.734,3.997c1.016,0.949,2.353,1.474,3.735,1.474c0.122,0,0.246-0.004,0.371-0.012l9.67-0.66l-0.698,10.209c-0.126,1.881,0.531,3.729,1.817,5.105c1.286,1.378,3.087,2.16,4.973,2.16h18.618c0.008,0,0.017,0,0.021,0c3.756,0,6.802-3.046,6.802-6.804c0-0.331-0.871-12.765-0.871-12.765l69.434-4.734c2.871-0.196,5.101-2.581,5.101-5.458C289.857,212.037,287.63,209.652,284.759,209.456z" fill="#000000"/>
	<path d="M240,32L368,160M368,32L240,160" stroke="#FF0000" stroke-width="15%" stroke-linecap="round"/>
</svg>
