<?xml version="1.0" encoding="UTF-8"?>
<!-- Sources: http://www.flaticon.com/free-icon/servers_182395 ; http://www.flaticon.com/packs/network-3 -->
<!DOCTYPE svg PUBLIC "-//W3C//DTD SVG 1.1//EN" "http://www.w3.org/Graphics/SVG/1.1/DTD/svg11.dtd">
<svg version="1.1" xmlns="http://www.w3.org/2000/svg" viewBox="0 0 512 512">
	<path d="M298.667,443.733h-85.333c-4.71,0-8.533,3.823-8.533,8.533c0,4.71,3.823,8.533,8.533,8.533h85.333c4.71,0,8.533-3.823,8.533-8.533C307.2,447.556,303.377,443.733,298.667,443.733zM98.133,17.067H42.667C19.14,17.067,0,36.207,0,59.733V435.2c0,23.526,19.14,42.667,42.667,42.667h51.2c4.71,0,8.533-3.823,8.533-8.533s-3.823-8.533-8.533-8.533h-51.2c-14.114,0-25.6-11.486-25.6-25.6V59.733c0-14.114,11.486-25.6,25.6-25.6h55.467c4.71,0,8.533-3.823,8.533-8.533C106.667,20.89,102.844,17.067,98.133,17.067zM298.667,409.6h-85.333c-4.71,0-8.533,3.823-8.533,8.533s3.823,8.533,8.533,8.533h85.333c4.71,0,8.533-3.823,8.533-8.533S303.377,409.6,298.667,409.6zM349.867,238.933H162.133c-4.71,0-8.533,3.823-8.533,8.533s3.823,8.533,8.533,8.533h187.733c4.71,0,8.533-3.823,8.533-8.533S354.577,238.933,349.867,238.933zM264.789,213.333c0-4.71-3.814-8.533-8.533-8.533h-0.085c-4.71,0-8.491,3.823-8.491,8.533c0,4.71,3.866,8.533,8.576,8.533C260.975,221.867,264.789,218.044,264.789,213.333zM273.067,358.4c0-9.412-7.654-17.067-17.067-17.067c-9.412,0-17.067,7.654-17.067,17.067s7.654,17.067,17.067,17.067C265.412,375.467,273.067,367.812,273.067,358.4zM94.123,68.267h-0.085c-4.71,0-8.491,3.823-8.491,8.533s3.866,8.533,8.576,8.533c4.719,0,8.533-3.823,8.533-8.533S98.842,68.267,94.123,68.267zM93.867,409.6H76.8c-4.71,0-8.533,3.823-8.533,8.533s3.823,8.533,8.533,8.533h17.067c4.71,0,8.533-3.823,8.533-8.533S98.577,409.6,93.867,409.6zM94.123,136.533h-0.085c-4.71,0-8.491,3.823-8.491,8.533c0,4.71,3.866,8.533,8.576,8.533c4.719,0,8.533-3.823,8.533-8.533C102.656,140.356,98.842,136.533,94.123,136.533zM93.867,375.467H76.8c-4.71,0-8.533,3.823-8.533,8.533s3.823,8.533,8.533,8.533h17.067c4.71,0,8.533-3.823,8.533-8.533S98.577,375.467,93.867,375.467zM93.867,238.933h-51.2c-4.71,0-8.533,3.823-8.533,8.533S37.956,256,42.667,256h51.2c4.71,0,8.533-3.823,8.533-8.533S98.577,238.933,93.867,238.933zM42.667,187.733h51.2c4.71,0,8.533-3.823,8.533-8.533s-3.823-8.533-8.533-8.533h-51.2c-4.71,0-8.533,3.823-8.533,8.533S37.956,187.733,42.667,187.733zM94.123,204.8h-0.085c-4.71,0-8.491,3.823-8.491,8.533c0,4.71,3.866,8.533,8.576,8.533c4.719,0,8.533-3.823,8.533-8.533C102.656,208.623,98.842,204.8,94.123,204.8zM42.667,119.467h51.2c4.71,0,8.533-3.823,8.533-8.533s-3.823-8.533-8.533-8.533h-51.2c-4.71,0-8.533,3.823-8.533,8.533S37.956,119.467,42.667,119.467zM349.867,0H162.133c-23.526,0-42.667,19.14-42.667,42.667v426.667c0,23.526,19.14,42.667,42.667,42.667h187.733c23.526,0,42.667-19.14,42.667-42.667V42.667C392.533,19.14,373.393,0,349.867,0zM375.467,469.333c0,14.114-11.486,25.6-25.6,25.6H162.133c-14.114,0-25.6-11.486-25.6-25.6V42.667c0-14.114,11.486-25.6,25.6-25.6h187.733c14.114,0,25.6,11.486,25.6,25.6V469.333zM418.133,187.733h51.2c4.71,0,8.533-3.823,8.533-8.533s-3.823-8.533-8.533-8.533h-51.2c-4.71,0-8.533,3.823-8.533,8.533S413.423,187.733,418.133,187.733zM418.304,136.533c-4.71,0-8.491,3.823-8.491,8.533c0,4.71,3.866,8.533,8.576,8.533c4.719,0,8.533-3.823,8.533-8.533c0-4.71-3.814-8.533-8.533-8.533H418.304zM418.304,204.8c-4.71,0-8.491,3.823-8.491,8.533c0,4.71,3.866,8.533,8.576,8.533c4.719,0,8.533-3.823,8.533-8.533c0-4.71-3.814-8.533-8.533-8.533H418.304zM418.389,85.333c4.719,0,8.533-3.823,8.533-8.533s-3.814-8.533-8.533-8.533h-0.085c-4.71,0-8.491,3.823-8.491,8.533S413.679,85.333,418.389,85.333zM418.133,256h51.2c4.71,0,8.533-3.823,8.533-8.533s-3.823-8.533-8.533-8.533h-51.2c-4.71,0-8.533,3.823-8.533,8.533S413.423,256,418.133,256zM418.133,426.667H435.2c4.71,0,8.533-3.823,8.533-8.533s-3.823-8.533-8.533-8.533h-17.067c-4.71,0-8.533,3.823-8.533,8.533S413.423,426.667,418.133,426.667zM418.133,392.533H435.2c4.71,0,8.533-3.823,8.533-8.533s-3.823-8.533-8.533-8.533h-17.067c-4.71,0-8.533,3.823-8.533,8.533S413.423,392.533,418.133,392.533zM469.333,17.067h-55.467c-4.71,0-8.533,3.823-8.533,8.533c0,4.71,3.823,8.533,8.533,8.533h55.467c14.114,0,25.6,11.486,25.6,25.6V435.2c0,14.114-11.486,25.6-25.6,25.6h-51.2c-4.71,0-8.533,3.823-8.533,8.533s3.823,8.533,8.533,8.533h51.2c23.526,0,42.667-19.14,42.667-42.667V59.733C512,36.207,492.86,17.067,469.333,17.067zM264.789,76.8c0-4.71-3.814-8.533-8.533-8.533h-0.085c-4.71,0-8.491,3.823-8.491,8.533s3.866,8.533,8.576,8.533C260.975,85.333,264.789,81.51,264.789,76.8zM349.867,102.4H162.133c-4.71,0-8.533,3.823-8.533,8.533s3.823,8.533,8.533,8.533h187.733c4.71,0,8.533-3.823,8.533-8.533S354.577,102.4,349.867,102.4zM264.789,145.067c0-4.71-3.814-8.533-8.533-8.533h-0.085c-4.71,0-8.491,3.823-8.491,8.533c0,4.71,3.866,8.533,8.576,8.533C260.975,153.6,264.789,149.777,264.789,145.067zM418.133,119.467h51.2c4.71,0,8.533-3.823,8.533-8.533s-3.823-8.533-8.533-8.533h-51.2c-4.71,0-8.533,3.823-8.533,8.533S413.423,119.467,418.133,119.467zM349.867,34.133H162.133c-4.71,0-8.533,3.823-8.533,8.533c0,4.71,3.823,8.533,8.533,8.533h187.733c4.71,0,8.533-3.823,8.533-8.533C358.4,37.956,354.577,34.133,349.867,34.133zM349.867,170.667H162.133c-4.71,0-8.533,3.823-8.533,8.533s3.823,8.533,8.533,8.533h187.733c4.71,0,8.533-3.823,8.533-8.533S354.577,170.667,349.867,170.667z" fill="#000000"/>
</svg>
