<?xml version="1.0" encoding="UTF-8"?>
<!-- Sources: http://www.flaticon.com/free-icon/rainy-day-weather-symbol_53573 ; http://www.flaticon.com/packs/justicons -->
<!DOCTYPE svg PUBLIC "-//W3C//DTD SVG 1.1//EN" "http://www.w3.org/Graphics/SVG/1.1/DTD/svg11.dtd">
<svg version="1.1" xmlns="http://www.w3.org/2000/svg" viewBox="0 0 612 612">
	<path d="M230.455,142.701c4.061,4.06,9.658,6.568,15.837,6.568c12.36,0,22.391-10.031,22.391-22.391c0-6.18-2.508-11.777-6.568-15.837l-29.854-29.854c-4.045-4.045-9.643-6.553-15.822-6.553c-12.359,0-22.39,10.031-22.39,22.39c0,6.18,2.508,11.777,6.568,15.837L230.455,142.701zM186.585,507.512c-12.359,0-22.39,10.017-22.39,22.391v29.854c0,12.375,10.031,22.391,22.39,22.391s22.39-10.016,22.39-22.391v-29.854C208.976,517.528,198.945,507.512,186.585,507.512zM186.585,417.951c-12.359,0-22.39,10.016-22.39,22.391v29.854c0,12.374,10.031,22.39,22.39,22.39s22.39-10.016,22.39-22.39v-29.854C208.976,427.967,198.945,417.951,186.585,417.951zM485.122,149.269c6.18,0,11.777-2.508,15.822-6.568l29.854-29.854c4.061-4.045,6.568-9.643,6.568-15.822c0-12.359-10.017-22.39-22.391-22.39c-6.18,0-11.777,2.507-15.822,6.553L469.3,111.041c-4.061,4.06-6.568,9.658-6.568,15.837C462.731,139.237,472.748,149.269,485.122,149.269zM365.707,89.561c12.375,0,22.391-10.031,22.391-22.39V22.39c0-12.359-10.016-22.39-22.391-22.39c-12.374,0-22.39,10.031-22.39,22.39v44.781C343.317,79.53,353.333,89.561,365.707,89.561zM589.609,223.902h-44.78c-12.359,0-22.39,10.031-22.39,22.39c0,12.36,10.03,22.391,22.39,22.391h44.78c12.359,0,22.391-10.031,22.391-22.391C612,233.933,601.969,223.902,589.609,223.902zM261.22,537.366c-12.359,0-22.391,10.016-22.391,22.39v29.854c0,12.375,10.031,22.391,22.391,22.391s22.39-10.016,22.39-22.391v-29.854C283.61,547.382,273.579,537.366,261.22,537.366zM452.716,338.347c24.479-23.122,39.869-55.737,39.869-92.054c0-70.051-56.812-126.878-126.878-126.878c-42.108,0-79.336,20.584-102.413,52.184c-14.822-4.657-30.48-7.403-46.855-7.403c-83.307,0-151.239,65.036-156.254,147.089C24.435,329.958,0,367.334,0,410.488c0,61.842,50.109,111.951,111.951,111.951c12.359,0,22.39-10.017,22.39-22.391s-10.031-22.391-22.39-22.391c-37.033,0-67.171-30.137-67.171-67.17c0-25.062,13.853-47.871,36.153-59.514l22.405-11.718l1.538-25.241c3.612-58.901,52.617-105.04,111.563-105.04c34.436,0,66.469,15.613,87.919,42.825l12.897,16.375l20.838,0.672c36.406,1.179,64.932,30.6,64.932,67.006v29.839l27.555,11.494c19.524,8.149,32.152,27.077,32.152,48.229c0,28.809-23.435,52.243-52.243,52.243c-12.359,0-22.391,10.017-22.391,22.391s10.031,22.391,22.391,22.391c53.587,0,97.023-43.438,97.023-97.024C507.512,387.008,485.077,354.064,452.716,338.347zM436.565,287.207c-17.614-36.347-54.244-61.737-97.024-63.125c-9.853-12.494-21.659-23.331-34.795-32.361c15.017-16.792,36.69-27.525,60.961-27.525c45.273,0,82.098,36.824,82.098,82.097C447.805,261.234,443.596,275.146,436.565,287.207zM335.854,417.951c-12.359,0-22.39,10.016-22.39,22.391v29.854c0,12.374,10.03,22.39,22.39,22.39s22.391-10.016,22.391-22.39v-29.854C358.244,427.967,348.213,417.951,335.854,417.951zM261.22,447.805c-12.359,0-22.391,10.016-22.391,22.391v29.854c0,12.374,10.031,22.391,22.391,22.391s22.39-10.017,22.39-22.391v-29.854C283.61,457.82,273.579,447.805,261.22,447.805zM335.854,507.512c-12.359,0-22.39,10.017-22.39,22.391v29.854c0,12.375,10.03,22.391,22.39,22.391s22.391-10.016,22.391-22.391v-29.854C358.244,517.528,348.213,507.512,335.854,507.512z" fill="#000000"/>
</svg>
